<?xml version="1.0" standalone="no"?>
<!DOCTYPE svg PUBLIC "-//W3C//DTD SVG 20010904//EN"
 "http://www.w3.org/TR/2001/REC-SVG-20010904/DTD/svg10.dtd">
<svg version="1.0" xmlns="http://www.w3.org/2000/svg"
 width="512.000000pt" height="512.000000pt" viewBox="0 0 512.000000 512.000000"
 preserveAspectRatio="xMidYMid meet">

<g transform="translate(0.000000,512.000000) scale(0.100000,-0.100000)"
fill="#000000" stroke="none">
<path d="M1448 3483 c7 -3 16 -2 19 1 4 3 -2 6 -13 5 -11 0 -14 -3 -6 -6z"/>
<path d="M1265 3420 c6 -9 4 -12 -7 -8 -8 4 -21 2 -29 -4 -12 -8 -12 -9 1 -5
8 2 23 0 34 -5 12 -7 22 -6 30 2 8 8 6 9 -8 4 -13 -5 -17 -4 -12 4 3 6 1 14
-5 18 -8 5 -9 3 -4 -6z"/>
<path d="M1235 3380 c11 -5 27 -9 35 -9 9 0 8 4 -5 9 -11 5 -27 9 -35 9 -9 0
-8 -4 5 -9z"/>
<path d="M1130 3351 c-25 -16 -60 -43 -77 -60 -18 -17 -33 -27 -33 -24 0 4
-20 -13 -45 -37 -24 -24 -41 -48 -38 -53 3 -6 1 -7 -5 -4 -22 14 -134 -142
-197 -276 -99 -209 -126 -422 -80 -637 15 -72 58 -206 82 -260 37 -81 116
-209 126 -203 5 3 7 2 4 -4 -9 -14 42 -85 55 -77 7 5 8 2 3 -5 -9 -15 53 -83
68 -74 6 3 7 2 4 -4 -4 -6 12 -28 36 -49 55 -52 137 -116 138 -109 1 3 2 11 3
18 1 6 7 11 13 10 12 -3 8 46 -4 57 -3 3 -4 -5 -1 -17 4 -13 -1 -28 -11 -37
-15 -13 -16 -4 -19 117 -2 73 -8 136 -13 142 -19 19 -8 27 12 9 20 -18 21 -18
35 1 8 10 14 13 14 7 0 -7 5 -12 10 -12 6 0 -2 18 -16 40 -15 22 -29 40 -31
40 -2 0 -1 -5 2 -10 4 -6 2 -17 -4 -24 -9 -10 -8 -15 4 -20 8 -3 15 -11 15
-18 0 -8 -5 -7 -16 4 -17 17 -26 91 -11 81 5 -3 -7 26 -26 64 -68 133 -117
348 -117 504 0 96 25 235 55 314 15 39 27 78 28 88 1 9 5 17 10 17 5 0 4 7 -3
15 -11 13 -10 14 2 10 11 -4 24 9 43 42 15 26 42 66 60 88 29 36 31 43 19 60
-8 11 -11 28 -8 39 4 12 3 18 -1 14 -10 -9 -15 -68 -6 -65 3 1 6 -2 6 -8 0 -5
-8 -9 -18 -9 -12 1 -14 -2 -7 -10 6 -9 4 -20 -7 -35 -14 -21 -17 -22 -25 -6
-7 12 -6 21 2 28 10 10 11 8 6 -8 -6 -17 -5 -18 6 -7 11 11 10 15 -4 26 -11 8
-13 17 -7 27 5 9 4 31 -2 52 -14 50 -6 242 11 262 17 21 12 19 -40 -14z m20
-20 c0 -7 -11 -12 -48 -21 -4 -1 -13 -6 -19 -12 -9 -7 -13 -7 -13 1 0 10 13
15 33 12 4 0 7 3 7 8 0 5 8 12 18 14 9 3 18 5 20 6 1 0 2 -3 2 -8z m-22 -119
c2 -7 -3 -12 -12 -12 -9 0 -16 7 -16 16 0 17 22 14 28 -4z m-1 -84 c-3 -8 -6
-5 -6 6 -1 11 2 17 5 13 3 -3 4 -12 1 -19z m7 -114 c3 -8 2 -12 -4 -9 -6 3
-10 10 -10 16 0 14 7 11 14 -7z m12 -53 c19 15 18 2 -1 -17 -8 -9 -15 -13 -15
-11 0 3 -2 11 -3 19 -2 7 -2 9 1 5 2 -4 10 -3 18 4z m-32 -1027 c3 -8 2 -12
-4 -9 -6 3 -10 10 -10 16 0 14 7 11 14 -7z m21 -44 c3 -5 1 -10 -4 -10 -6 0
-11 5 -11 10 0 6 2 10 4 10 3 0 8 -4 11 -10z m0 -49 c3 -5 2 -12 -3 -15 -5 -3
-9 1 -9 9 0 17 3 19 12 6z m55 -42 c0 -6 -4 -7 -10 -4 -5 3 -10 11 -10 16 0 6
5 7 10 4 6 -3 10 -11 10 -16z m-60 -127 c0 -7 -4 -10 -10 -7 -5 3 -10 16 -10
28 0 18 2 19 10 7 5 -8 10 -21 10 -28z m-159 -9 c13 -16 12 -17 -3 -4 -10 7
-18 15 -18 17 0 8 8 3 21 -13z m60 -60 c13 -16 12 -17 -3 -4 -10 7 -18 15 -18
17 0 8 8 3 21 -13z m96 -15 c-3 -8 -6 -5 -6 6 -1 11 2 17 5 13 3 -3 4 -12 1
-19z m-10 -53 c0 -8 -4 -12 -9 -9 -5 3 -6 10 -3 15 9 13 12 11 12 -6z"/>
<path d="M1194 3353 c4 -23 12 -23 31 -3 18 20 18 20 -7 18 -14 -1 -25 -8 -24
-15z"/>
<path d="M1170 3305 c-7 -8 -8 -15 -2 -15 5 0 15 7 22 15 7 8 8 15 2 15 -5 0
-15 -7 -22 -15z"/>
<path d="M1289 3183 c-13 -16 -12 -17 4 -4 9 7 17 15 17 17 0 8 -8 3 -21 -13z"/>
<path d="M1336 3173 c1 -12 -1 -23 -6 -23 -5 0 -17 -3 -27 -7 -17 -6 -16 -4 2
18 l20 24 -22 -19 c-13 -10 -20 -22 -18 -27 3 -4 -3 -12 -12 -18 -15 -8 -16
-12 -5 -23 11 -11 13 -10 10 2 -2 8 3 14 10 12 8 -1 11 2 6 9 -5 8 -2 10 8 6
20 -7 57 32 50 53 -4 13 -3 13 10 2 11 -9 18 -10 23 -2 7 12 8 11 -26 14 -22
2 -25 -1 -23 -21z"/>
<path d="M1234 3089 c-3 -6 -2 -15 3 -20 5 -5 9 -1 9 11 0 23 -2 24 -12 9z"/>
<path d="M4132 2581 c-23 -14 -10 -46 18 -46 20 0 25 5 25 25 0 26 -20 36 -43
21z"/>
<path d="M1760 2460 l0 -110 29 0 c29 0 30 2 33 53 3 48 5 52 28 52 23 0 25
-4 28 -52 3 -52 4 -53 34 -53 l30 0 -4 60 c-6 78 -27 104 -80 97 -37 -5 -38
-5 -38 29 0 31 -3 34 -30 34 l-30 0 0 -110z"/>
<path d="M3000 2460 l0 -110 29 0 c29 0 30 2 33 52 2 42 7 54 22 56 25 5 36
-14 36 -65 0 -39 2 -43 25 -43 24 0 25 3 25 60 0 76 -23 105 -76 97 -33 -6
-34 -5 -34 29 0 31 -2 34 -30 34 l-30 0 0 -110z"/>
<path d="M3690 2460 l0 -110 25 0 25 0 0 110 0 110 -25 0 -25 0 0 -110z"/>
<path d="M1167 2554 c-4 -4 -7 -52 -7 -106 0 -98 0 -98 25 -98 23 0 25 4 25
45 0 54 10 57 36 10 25 -46 45 -44 75 8 l24 42 3 -52 c3 -49 5 -53 28 -53 24
0 24 0 24 105 0 99 -1 105 -20 105 -14 0 -33 -19 -59 -61 l-39 -61 -39 58
c-36 56 -60 74 -76 58z"/>
<path d="M2440 2535 c0 -21 5 -25 30 -25 l30 0 0 -80 0 -80 30 0 30 0 0 80 0
80 29 0 c20 0 30 6 34 19 3 11 2 22 -1 25 -3 3 -45 6 -94 6 -87 0 -88 0 -88
-25z"/>
<path d="M3325 2548 c-27 -15 -35 -28 -35 -60 0 -31 26 -52 78 -63 42 -9 43
-35 1 -35 -17 0 -38 4 -48 10 -14 7 -20 4 -29 -15 -11 -23 -9 -25 30 -36 75
-20 138 8 138 62 0 27 -30 59 -57 59 -6 0 -24 5 -40 11 -26 10 -27 11 -10 24
13 9 27 11 50 4 31 -9 46 0 47 27 0 24 -90 32 -125 12z"/>
<path d="M1640 2531 c0 -10 -7 -21 -15 -25 -8 -3 -15 -15 -15 -26 0 -11 7 -20
15 -20 11 0 15 -11 15 -43 0 -24 5 -48 12 -55 13 -13 88 -17 88 -4 0 13 -15
28 -32 35 -27 10 -25 67 2 67 15 0 20 7 20 25 0 18 -5 25 -20 25 -13 0 -20 7
-20 20 0 15 -7 20 -25 20 -18 0 -25 -5 -25 -19z"/>
<path d="M4000 2531 c0 -10 -7 -21 -15 -25 -8 -3 -15 -15 -15 -26 0 -11 7 -20
15 -20 11 0 15 -12 15 -44 0 -26 6 -48 14 -55 15 -12 72 -18 81 -9 10 10 -7
36 -26 41 -28 7 -27 67 1 67 15 0 20 7 20 25 0 18 -5 25 -20 25 -13 0 -20 7
-20 20 0 15 -7 20 -25 20 -18 0 -25 -5 -25 -19z"/>
<path d="M1458 2499 c-29 -16 -10 -39 32 -39 22 0 42 -4 45 -10 4 -6 -9 -10
-33 -10 -52 0 -80 -29 -64 -65 11 -23 16 -24 82 -24 l70 1 0 59 c0 46 -5 64
-20 79 -22 22 -82 27 -112 9z m70 -105 c-9 -9 -21 -13 -27 -10 -20 13 -11 26
16 26 25 0 26 -1 11 -16z"/>
<path d="M1988 2499 c-29 -16 -10 -39 32 -39 22 0 42 -4 45 -10 4 -6 -9 -10
-33 -10 -52 0 -80 -29 -64 -65 11 -23 16 -24 82 -24 l70 1 0 59 c0 46 -5 64
-20 79 -22 22 -82 27 -112 9z m70 -105 c-9 -9 -21 -13 -27 -10 -20 13 -11 26
16 26 25 0 26 -1 11 -16z"/>
<path d="M2160 2429 l0 -79 29 0 c29 0 30 2 33 53 3 48 5 52 28 52 23 0 25 -4
28 -52 3 -49 5 -53 28 -53 23 0 24 3 24 65 0 80 -15 93 -107 93 l-63 0 0 -79z"/>
<path d="M2664 2498 c-24 -11 -44 -48 -44 -79 0 -36 44 -69 92 -69 56 0 77 12
59 34 -9 10 -22 14 -37 10 -13 -3 -32 -2 -41 2 -13 6 0 10 42 14 57 5 60 6 57
30 -7 54 -74 85 -128 58z m60 -34 c26 -10 18 -24 -14 -24 -29 0 -38 9 -23 23
8 9 17 9 37 1z"/>
<path d="M2855 2498 c-51 -29 -60 -84 -20 -123 31 -32 103 -35 129 -6 17 19
17 20 -3 30 -15 9 -25 8 -39 0 -29 -18 -54 -4 -50 28 3 26 6 28 48 28 53 0 67
24 25 43 -32 15 -64 15 -90 0z"/>
<path d="M3523 2500 c-47 -19 -58 -92 -20 -128 34 -32 100 -30 132 3 68 68
-17 163 -112 125z m72 -75 c0 -23 -5 -31 -22 -33 -14 -2 -26 4 -32 17 -16 30
-3 53 28 49 22 -2 26 -8 26 -33z"/>
<path d="M3780 2452 c0 -87 14 -102 100 -101 l70 1 0 80 0 79 -27 -3 c-26 -3
-28 -7 -31 -53 -3 -54 -12 -71 -36 -62 -12 5 -16 21 -16 62 0 54 0 55 -30 55
-30 0 -30 0 -30 -58z"/>
<path d="M4120 2430 l0 -80 30 0 30 0 0 80 0 80 -30 0 -30 0 0 -80z"/>
<path d="M4253 2500 c-47 -19 -58 -92 -20 -128 34 -32 100 -30 132 3 68 68
-17 163 -112 125z m77 -76 c0 -28 -25 -42 -49 -27 -22 14 -25 38 -6 57 22 22
55 4 55 -30z"/>
<path d="M4420 2430 c0 -79 0 -80 25 -80 23 0 25 4 25 43 0 51 11 70 36 65 15
-2 20 -14 22 -56 3 -50 4 -52 33 -52 28 0 29 1 29 51 0 50 -12 87 -34 101 -17
12 -61 9 -74 -4 -9 -9 -12 -9 -12 0 0 7 -11 12 -25 12 -25 0 -25 -1 -25 -80z"/>
<path d="M4643 2498 c-48 -23 -21 -88 36 -88 11 0 23 -5 27 -11 4 -7 -7 -10
-35 -8 -29 2 -45 -1 -51 -11 -13 -20 6 -30 61 -30 55 0 82 17 77 50 -3 25 -18
36 -60 45 -42 8 -35 29 8 22 26 -4 37 -2 41 10 12 30 -56 44 -104 21z"/>
<path d="M1187 1763 c-10 -10 -8 -45 2 -39 5 3 15 -1 22 -10 10 -13 10 -17 -2
-25 -10 -6 -11 -9 -1 -9 7 0 15 6 18 14 7 19 25 15 53 -11 14 -13 19 -23 12
-28 -6 -3 -11 -15 -11 -25 0 -10 -4 -20 -10 -22 -6 -2 -6 -8 0 -18 8 -13 10
-12 10 3 0 10 4 16 9 13 5 -4 7 3 4 14 -3 11 0 26 6 33 8 10 4 20 -19 42 -17
16 -30 25 -30 21 0 -5 -6 -3 -13 3 -8 6 -17 8 -20 4 -11 -10 -8 12 3 25 6 6 7
10 4 7 -4 -3 -12 0 -19 5 -7 5 -15 7 -18 3z"/>
<path d="M1181 1694 c0 -11 3 -14 6 -6 3 7 2 16 -1 19 -3 4 -6 -2 -5 -13z"/>
<path d="M1230 1639 c0 -24 23 -21 28 4 2 10 -3 17 -12 17 -10 0 -16 -9 -16
-21z"/>
<path d="M1309 1633 c-13 -16 -12 -17 4 -4 9 7 17 15 17 17 0 8 -8 3 -21 -13z"/>
<path d="M1359 1608 c7 -10 10 -18 6 -18 -5 0 0 -9 9 -19 11 -12 14 -21 7 -26
-6 -3 -11 -12 -11 -18 1 -14 23 21 26 40 1 7 -3 11 -9 10 -6 -1 -11 3 -12 10
0 7 -7 18 -15 25 -12 11 -12 11 -1 -4z"/>
<path d="M1228 1510 c10 -12 18 -16 21 -9 2 6 -3 15 -10 20 -24 15 -29 10 -11
-11z"/>
<path d="M1266 1463 c-4 -13 -4 -27 -1 -33 3 -5 2 -10 -4 -10 -5 0 -13 5 -16
10 -3 6 -11 10 -18 10 -6 0 -1 -7 12 -16 19 -14 25 -14 35 -3 8 9 10 24 6 39
l-6 25 -8 -22z"/>
<path d="M1342 1421 c-11 -7 -11 -9 0 -14 9 -3 15 1 15 9 0 8 -1 14 -1 14 -1
0 -7 -4 -14 -9z"/>
<path d="M1285 1410 c-3 -6 1 -7 9 -4 18 7 21 14 7 14 -6 0 -13 -4 -16 -10z"/>
<path d="M1400 1340 c8 -5 20 -10 25 -10 6 0 3 5 -5 10 -8 5 -19 10 -25 10 -5
0 -3 -5 5 -10z"/>
</g>
</svg>
